<svg width="167" height="166" viewBox="0 0 167 166" fill="none" xmlns="http://www.w3.org/2000/svg">
<path opacity="0.08" fill-rule="evenodd" clip-rule="evenodd" d="M67.9199 30.3398C93.2103 26.3828 119.561 36.3185 131.351 59.419C142.74 81.7344 134.028 108.012 116.6 125.723C100.106 142.484 75.696 147.394 54.2445 137.775C29.6455 126.744 7.36502 105.252 10.7979 78.2785C14.3011 50.7567 40.864 34.5725 67.9199 30.3398Z" fill="white"/>
<path fill-rule="evenodd" clip-rule="evenodd" d="M97.3011 104.843C98.8962 106.431 100.119 108.462 102.008 107.475C102.737 107.096 103.517 106.553 104.189 105.909C105.305 104.843 106.65 103.069 105.577 101.653C101.865 98.0835 94.7332 92.0822 94.7118 92.0679L96.965 89.5143C96.9721 89.5214 98.5028 90.8662 100.491 92.7402C103.081 95.1865 106.707 97.5685 108.46 100.015C109.447 101.388 109.239 103.813 108.717 105.236C108.302 106.381 107.494 107.461 106.536 108.377C105.634 109.242 104.568 109.986 103.567 110.501C102.559 111.023 101.543 111.323 100.677 111.331C100.649 111.467 100.613 111.61 100.577 111.746C100.291 112.711 99.6759 113.555 98.9034 114.249C98.2096 114.871 97.3727 115.386 96.5358 115.758C95.6202 116.159 94.6617 116.388 93.8034 116.402C93.7748 116.681 93.7175 116.953 93.6388 117.225C93.3527 118.19 92.7376 119.034 91.9651 119.728C91.2712 120.35 90.4343 120.865 89.5975 121.237C88.3672 121.781 87.051 122.003 86.021 121.824C85.9852 122.189 85.9137 122.539 85.8136 122.868V122.875C85.506 123.884 84.9195 124.735 84.1684 125.365C83.4173 125.994 82.5018 126.402 81.529 126.538C80.3487 126.702 79.097 126.466 77.9811 125.737C77.6736 125.536 77.3374 125.279 76.944 124.964L76.7222 124.792L73.3961 122.225L75.4705 119.535L78.7966 122.103L79.0183 122.275C79.3259 122.511 79.5834 122.718 79.848 122.883C80.2343 123.14 80.6635 123.219 81.064 123.169C81.4002 123.119 81.7149 122.976 81.9796 122.754C82.2371 122.539 82.4445 122.239 82.5518 121.888C82.6877 121.423 82.6663 120.844 82.4159 120.172C79.5762 116.209 73.6393 111.402 73.625 111.388L75.7709 108.748C75.7852 108.756 78.1886 110.708 80.7636 113.226C81.4503 113.899 82.2085 114.642 83.0025 115.351C83.1455 115.479 83.2957 115.608 83.4388 115.737C83.4674 115.765 83.5032 115.794 83.5318 115.823C83.7178 115.987 83.9037 116.159 84.0897 116.331C84.7192 116.896 85.3415 117.468 85.9924 117.969C86.7649 118.519 86.7506 118.634 87.6304 118.369C87.8164 118.312 88.0167 118.212 88.2313 118.119C88.7606 117.89 89.2756 117.568 89.6904 117.196C90.0266 116.888 90.2841 116.567 90.3771 116.252C90.4487 116.002 90.3986 115.701 90.1554 115.365C87.3014 111.395 79.4546 104.5 79.4332 104.478L81.6863 101.925C81.7006 101.939 86.0639 105.773 89.6189 109.521C90.5846 110.472 92.0223 111.774 93.0595 112.582C93.4386 112.854 93.7032 113.205 94.2755 113.004C94.5187 112.919 94.8262 112.797 95.1696 112.647C95.6989 112.418 96.2139 112.096 96.6288 111.724C96.965 111.424 97.2225 111.095 97.3154 110.78C97.387 110.53 97.3369 110.229 97.0937 109.886C94.2397 105.916 86.3929 99.0205 86.3715 98.999L88.6247 96.4454C88.6318 96.4454 93.646 100.859 97.3011 104.843Z" fill="white"/>
<path fill-rule="evenodd" clip-rule="evenodd" d="M129.404 92.7902L118.875 55.6237L118.417 54L116.793 54.4435L103.317 58.1415L101.658 58.5993L102.123 60.2445L102.759 62.4905C96.2929 63.077 89.9912 61.6965 84.1115 60.4162C72.4094 57.8626 62.2666 55.6523 54.4341 68.1342C52.3169 71.5175 50.0065 75.5374 49.47 78.6132C48.7333 82.7976 50.3713 85.48 56.9949 84.264C61.0649 83.5201 63.5755 81.4743 65.9145 79.5645C68.5611 77.4043 70.943 75.4659 75.5638 76.8392C77.9886 77.8407 78.2104 77.9336 80.1059 79.5287C86.4076 84.8147 101.386 97.8688 101.565 98.019L104.669 100.751L105.535 101.51L106.557 100.987L112.78 97.8259L113.16 99.1635L114.79 98.6985L128.231 94.8932L129.869 94.4283L129.404 92.7902ZM106.042 97.4253L103.804 95.4583H103.796C103.753 95.4225 88.4104 82.0466 82.2804 76.9108C79.9843 74.9866 79.7268 74.8793 76.8084 73.6705L76.7369 73.6419L76.5795 73.5847C70.2134 71.6605 67.1591 74.1569 63.7687 76.9251C61.7515 78.5702 59.5985 80.3299 56.3869 80.9164C53.3826 81.4672 52.5815 80.6088 52.8319 79.1926C53.2754 76.6676 55.3783 73.0339 57.3167 69.9367V69.9295C63.8617 59.4791 72.9315 61.4533 83.3891 63.7351C89.7051 65.1085 96.4861 66.5891 103.703 65.8023L111.829 94.4855L106.042 97.4253ZM115.499 94.9576L105.871 60.9601L116.064 58.1633L125.67 92.0752L115.499 94.9576Z" fill="white"/>
<path fill-rule="evenodd" clip-rule="evenodd" d="M47.739 60.2373L47.0595 62.6264C50.1066 62.6908 55.879 62.6407 60.6858 61.5535L61.4297 64.8724C55.7789 66.1528 48.9693 66.0956 46.1081 66.0026L38.5117 92.8188C41.3944 93.7273 46.8234 96.0877 47.2597 101.08L43.8621 101.374C43.5975 98.348 39.7706 96.7529 37.5819 96.0806L37.1741 97.5183L36.7092 99.1563L35.0783 98.6914L21.638 94.886L20 94.4211L20.4649 92.7902L30.994 55.6237L31.4518 54L33.0755 54.4435L46.5516 58.1415L48.2111 58.5993L47.739 60.2373ZM34.3702 94.9576L43.998 60.9598L33.8051 58.163L24.1988 92.0749L34.3702 94.9576Z" fill="white"/>
<path fill-rule="evenodd" clip-rule="evenodd" d="M73.2963 117.303C72.9672 117.06 72.5667 116.981 72.1804 117.039C71.7941 117.096 71.4365 117.296 71.1933 117.618L68.561 121.187H68.5682C68.325 121.516 68.2392 121.924 68.2964 122.303C68.3536 122.682 68.5539 123.04 68.8758 123.283L68.9258 123.326C69.2406 123.541 69.6268 123.612 69.9916 123.555C70.3779 123.498 70.7355 123.297 70.9787 122.975L73.6181 119.399C73.8613 119.07 73.94 118.669 73.8828 118.283C73.8184 117.904 73.6181 117.546 73.2963 117.303ZM54.1196 96.3237C55.3785 97.2536 56.151 98.6126 56.3656 100.05C56.4586 100.666 56.4514 101.295 56.337 101.91C56.9021 101.624 57.5101 101.431 58.1324 101.338C59.6273 101.116 61.201 101.452 62.51 102.418V102.425C63.8261 103.391 64.6201 104.8 64.8418 106.295C64.9348 106.889 64.9276 107.497 64.8347 108.097C65.0135 108.054 65.1852 108.019 65.364 107.99C66.7159 107.79 68.1465 108.097 69.3267 108.97L69.4125 109.042C70.5498 109.914 71.2437 111.166 71.4439 112.475C71.5083 112.883 71.5226 113.298 71.4869 113.712C71.5512 113.698 71.6085 113.691 71.6728 113.684C72.9031 113.498 74.2193 113.784 75.3065 114.585C76.4009 115.393 77.059 116.559 77.245 117.797C77.4309 119.027 77.1448 120.343 76.3365 121.43L73.6971 125.007C72.8888 126.101 71.7229 126.759 70.4855 126.945C69.2552 127.131 67.9462 126.845 66.8518 126.044V126.051C65.7645 125.25 65.0993 124.077 64.9133 122.832C64.8919 122.689 64.8776 122.546 64.8704 122.403C64.57 122.503 64.2624 122.582 63.9549 122.625C62.6101 122.825 61.1795 122.518 59.9921 121.638C58.8048 120.758 58.0823 119.485 57.882 118.14C57.8391 117.868 57.8177 117.596 57.8248 117.318C57.3742 117.503 56.9092 117.639 56.43 117.711C54.935 117.933 53.3614 117.596 52.0524 116.631C50.7434 115.665 49.9423 114.249 49.7206 112.754C49.6061 112.017 49.6347 111.259 49.8136 110.522C49.3415 110.737 48.8408 110.88 48.3329 110.959C46.8952 111.173 45.3787 110.844 44.1198 109.921C42.8609 108.992 42.0884 107.632 41.8738 106.195C41.6592 104.757 41.9883 103.241 42.911 101.982H42.9181L46.1942 97.5397C47.1241 96.2736 48.4831 95.5083 49.9137 95.2937C51.3371 95.0648 52.8535 95.3938 54.1196 96.3237ZM52.9966 100.551C52.9108 99.9717 52.6032 99.4281 52.1096 99.0633V99.0561C51.6089 98.6913 51.0009 98.5626 50.4144 98.6484C49.8279 98.7342 49.2842 99.0418 48.9194 99.5354L45.6434 103.97H45.6506C45.2786 104.471 45.1499 105.086 45.2357 105.665C45.3215 106.245 45.6291 106.788 46.1227 107.153C46.6234 107.525 47.2385 107.654 47.8179 107.568C48.3973 107.482 48.9409 107.175 49.3057 106.681H49.3128L52.5889 102.246H52.5817C52.9465 101.746 53.0824 101.13 52.9966 100.551ZM61.4725 106.796C61.3795 106.159 61.0433 105.558 60.4997 105.158V105.165C59.9489 104.757 59.2766 104.614 58.6399 104.707C57.9962 104.807 57.4025 105.136 56.9948 105.68L53.5328 110.372C53.1322 110.923 52.9891 111.595 53.0821 112.232C53.1751 112.868 53.5113 113.462 54.0549 113.87C54.6057 114.278 55.2781 114.421 55.9147 114.328C56.5584 114.235 57.1521 113.898 57.5599 113.355L61.0219 108.662C61.4296 108.112 61.5726 107.439 61.4725 106.796ZM68.0746 112.976C68.0031 112.475 67.7456 112.01 67.3236 111.702V111.71C66.8944 111.395 66.3722 111.28 65.8787 111.359C65.3851 111.431 64.9202 111.688 64.6126 112.117L64.5554 112.189L61.6084 116.187V116.194C61.2937 116.617 61.1864 117.139 61.2651 117.632C61.3437 118.133 61.6012 118.598 62.0233 118.905C62.4453 119.22 62.9675 119.327 63.4682 119.249C63.9689 119.17 64.4338 118.913 64.7414 118.491L67.7459 114.421C68.0389 113.999 68.1533 113.476 68.0746 112.976Z" fill="white"/>
</svg>
