<svg width="122" height="116" viewBox="0 0 122 116" fill="none" xmlns="http://www.w3.org/2000/svg">
<path d="M47.5775 23.6471C53.2674 23.6471 57.8803 28.257 57.8803 33.9433C57.8803 39.6296 53.2674 44.2395 47.5775 44.2395C41.8875 44.2395 37.2747 39.6296 37.2747 33.9433C37.2747 28.257 41.8872 23.6471 47.5775 23.6471ZM30.9768 62.2369C30.9768 61.4639 31.4739 60.9396 32.2749 60.9396C33.076 60.9396 33.5731 61.4363 33.5731 62.2369V90.9997H61.8849V62.2369C61.8849 61.4639 62.382 60.9396 63.183 60.9396C63.9565 60.9396 64.4812 61.4363 64.4812 62.2369V90.9997H73.4858V59.6423C73.4858 52.5482 67.6853 46.779 60.6143 46.779H58.018L50.4498 58.538L49.5383 49.7324L50.7813 46.7512H45.2019L46.4449 49.7324L45.4783 58.593L37.9098 46.779H34.8715C27.7729 46.779 22 52.5758 22 59.6423V91H31.0047V62.2372L30.9768 62.2369ZM99.786 24.4749L92.7942 18.1573C92.5537 17.9339 92.1758 17.9512 91.9523 18.1916L89.8735 20.492C89.8735 20.492 83.4314 19.0326 81.4043 18.6036C79.7896 18.2773 78.9306 19.2046 78.7415 20.0113C78.4667 21.2817 77.6591 24.7496 77.1611 26.93C76.955 27.8744 77.4703 28.8528 78.3979 29.1274C79.4116 29.4364 80.4424 28.8184 80.6829 27.8054L81.3356 25.0242C81.3356 25.0242 82.813 23.8395 85.0118 25.9513L93.9277 34.8614C94.3229 35.2734 94.3229 35.9258 93.9277 36.3208C93.5154 36.7328 92.8626 36.7328 92.4673 36.3208L89.1347 32.9386C88.8769 32.6639 88.4132 32.6983 88.1897 33.0246C88.0179 33.265 88.0696 33.6083 88.2758 33.8143L91.6601 37.2478C92.0724 37.6598 92.0724 38.3639 91.6774 38.7585C91.2822 39.1536 90.6467 39.1536 90.2344 38.7412L86.8331 35.3247C86.6269 35.1014 86.2834 35.0501 86.0429 35.2217C85.6993 35.4451 85.6649 35.8914 85.9398 36.1661C85.9398 36.1661 88.2934 38.5182 89.2898 39.5309C89.685 39.943 89.6677 40.5953 89.2554 40.973C88.8431 41.3337 88.2247 41.3337 87.8294 40.9387L84.4968 37.6082C84.2219 37.3335 83.7753 37.3678 83.5518 37.6942C83.38 37.9345 83.4314 38.2779 83.6376 38.4839L86.9015 41.7287C87.3138 42.1407 87.2967 42.8104 86.8845 43.2051C86.4892 43.5828 85.8364 43.5828 85.4415 43.1878L82.8817 40.647C82.9161 40.4923 82.9504 40.3206 82.9504 40.1663C82.9504 39.1189 82.1085 38.2605 81.0434 38.2605C80.8887 38.2605 80.7342 38.2949 80.5795 38.3122C80.6138 38.1578 80.6312 38.0202 80.6312 37.8485C80.6312 36.8011 79.7893 35.9428 78.7242 35.9428C78.5694 35.9428 78.415 35.9771 78.2602 35.9944C78.2946 35.8571 78.3119 35.7197 78.3119 35.5651C78.3119 34.5177 77.47 33.6593 76.4049 33.6593C76.2675 33.6593 76.1301 33.6764 76.0097 33.6937C76.044 33.539 76.0614 33.4017 76.0614 33.23C76.0614 32.1826 75.2195 31.3243 74.1544 31.3243C73.9653 31.3243 73.7765 31.3586 73.6047 31.4102L69.5162 27.3414C69.2583 27.0837 68.8634 27.1011 68.6229 27.3587C68.3997 27.6164 68.4338 27.9941 68.6746 28.2344L72.6086 32.1143C72.0072 32.7153 70.1693 34.5864 70.1349 34.6207C69.843 34.9471 69.7056 35.3934 69.7056 35.8054C69.7056 36.8698 70.5989 37.7112 71.664 37.7112C71.8014 37.7112 71.9388 37.6942 72.0592 37.6768C72.0249 37.8312 72.0078 37.9688 72.0078 38.1405C72.0078 39.1879 72.8497 40.0463 73.9148 40.0463C74.0696 40.0463 74.224 40.0119 74.3788 39.9946C74.3444 40.1319 74.3271 40.2693 74.3271 40.4239C74.3271 41.4713 75.169 42.3297 76.2341 42.3297C76.3885 42.3297 76.5433 42.2954 76.698 42.278C76.6637 42.4327 76.6464 42.57 76.6464 42.7417C76.6464 43.7891 77.4883 44.6475 78.5533 44.6475C79.1891 44.6475 79.7388 44.3384 80.0824 43.8748L82.2469 41.6943C82.2469 41.6943 83.9991 43.4628 84.6005 44.0464C85.8373 45.2312 87.332 44.5615 87.7957 44.0464C88.191 43.6171 88.4315 43.1021 88.4485 42.5527C88.5172 42.57 88.5859 42.57 88.6546 42.57C89.2387 42.57 89.8057 42.364 90.2524 41.9177C90.699 41.454 90.9225 40.8533 90.9052 40.2523C90.9222 40.2696 91.8158 40.3553 92.5543 39.6169C93.0183 39.1532 93.2415 38.5182 93.2071 37.9002C93.2415 37.9002 94.1347 37.9688 94.8736 37.2478C95.7669 36.3894 95.7155 34.8957 94.8392 34.0203L93.1557 32.3379C93.8429 32.0976 95.0627 31.5652 95.8012 30.4838C96.0417 30.1231 97.416 28.0117 97.416 28.0117L99.8383 25.3506C100.078 25.0759 100.044 24.6982 99.786 24.4749Z" fill="white"/>
<path opacity="0.08" fill-rule="evenodd" clip-rule="evenodd" d="M92.2539 100.416C72.3302 116.488 44.5416 121.059 22.7817 106.948C1.76049 93.3171 -3.83351 66.2038 2.40423 42.1523C8.30792 19.3888 26.9924 2.93215 50.3796 0.536952C77.1984 -2.20967 107.24 5.26235 117.754 30.3389C128.481 55.9251 113.569 83.2225 92.2539 100.416Z" fill="white"/>
</svg>
