<svg width="167" height="166" viewBox="0 0 167 166" fill="none" xmlns="http://www.w3.org/2000/svg">
<g id="waves">
<g id="Trailblazers">
<g id="Group">
<path id="Vector" opacity="0.08" fill-rule="evenodd" clip-rule="evenodd" d="M103.929 131.592C80.7964 142.552 52.71 140.491 34.8584 121.677C17.6127 103.504 18.5218 75.8344 30.217 53.9117C41.286 33.163 63.304 21.5381 86.602 24.6848C113.318 28.2932 140.775 42.5907 145.126 69.4318C149.565 96.8183 128.677 119.866 103.929 131.592Z" fill="white"/>
</g>
</g>
<g id="XMLID_550_">
<path id="XMLID_551_" d="M78.1653 87.7976C78.1653 90.284 80.1869 92.3073 82.6725 92.3073C85.1603 92.3073 87.1856 90.284 87.1856 87.7976C87.1856 85.3059 85.1603 83.2806 82.6725 83.2806C80.1869 83.2808 78.1653 85.3061 78.1653 87.7976ZM82.6726 90.106C81.4023 90.106 80.3689 89.069 80.3689 87.7976C80.3689 86.5238 81.4023 85.4841 82.6726 85.4841C83.9462 85.4841 84.9822 86.5238 84.9822 87.7976C84.9822 89.069 83.9462 90.106 82.6726 90.106Z" fill="white"/>
<path id="XMLID_554_" d="M82.6748 80.1156L86.0437 70.6375H79.306L82.6748 80.1156Z" fill="white"/>
<path id="XMLID_555_" d="M87.4431 110.759C86.3816 109.065 84.9615 103.945 87.7862 101.712C89.3553 100.492 91.1621 100.7 93.0181 101.383C93.0646 99.0548 94.2565 91.5507 96.3003 89.884V89.823L96.3247 89.8622C96.8447 89.4448 97.1483 89.3497 97.7598 89.1031C98.5564 89.0446 98.7833 88.9787 99.5533 89.1814C98.8434 84.562 98.9078 82.2116 100.445 80.8232L95.9013 73.3682C94.8422 71.6357 93.2085 70.6375 90.7181 70.6375L86.7808 81.7213C88.7245 83.0417 90.0033 85.2696 90.0033 87.7953C90.0033 91.8462 86.7224 95.126 82.6702 95.126C78.6302 95.126 75.3493 91.8463 75.3493 87.7953C75.3493 85.2696 76.6279 83.0416 78.5704 81.7213L74.633 70.6375C72.134 70.6375 70.4991 71.6503 69.4498 73.3682L64.9108 80.8159C66.4532 82.1702 66.5178 84.5205 65.8004 89.1814C66.4471 89.0104 66.6971 89.0399 67.361 89.0399C68.077 89.3031 68.4652 89.3936 69.0398 89.8425L69.0521 89.823V89.8521C71.1079 91.4848 72.2832 98.8838 72.3355 101.383C74.1693 100.712 75.9935 100.487 77.5481 101.698C80.3923 103.945 78.972 109.065 77.9336 110.724C77.5028 111.393 76.9112 111.92 76.2243 112.289H89.1262C88.4437 111.923 87.8604 111.408 87.4431 110.759Z" fill="white"/>
<path id="XMLID_556_" d="M82.6785 68.4777C88.8842 68.4777 93.9163 63.4459 93.9163 57.2353C93.9163 51.0319 88.8842 46 82.6785 46C76.4691 46 71.4398 51.0321 71.4398 57.2353C71.4398 63.4459 76.4691 68.4777 82.6785 68.4777Z" fill="white"/>
<path id="XMLID_557_" d="M64.691 103.596C62.335 100.28 62.3826 100.334 60.2228 96.8462C58.1656 93.0468 55.9363 88.4514 54.9151 84.1811C53.984 80.2695 53.7926 76.1452 53.956 72.1284C54.166 68.0602 54.6185 64.8149 55.0493 62.8381C55.0493 62.8381 53.5875 66.4548 52.9129 72.0211C52.426 76.0744 52.4772 80.1619 53.113 84.1615C53.8268 88.6836 55.7022 93.9715 57.5701 98.1956C59.5089 102.054 59.9067 102.486 61.8016 105.866C63.04 107.796 65.4669 110.948 66.742 112.435C63.0814 111.249 62.4934 116.959 64.42 118.467C66.1916 119.854 69.4483 118.211 70.0816 117.191C70.7355 116.181 69.9508 114.512 68.4576 113.331C69.0078 113.345 69.5656 113.157 69.9986 112.75C70.777 112.025 70.9759 110.6 70.1083 109.668C64.1822 103.327 66.265 105.665 64.691 103.596Z" fill="white"/>
<path id="XMLID_558_" d="M56.1927 61.1128C57.3237 61.5278 58.7063 60.6028 59.4262 59.0775C60.0484 57.5449 61.598 53.138 60.6878 52.4422C59.652 51.7051 56.211 55.4635 55.4839 57.2303C54.6772 58.9434 55.0653 60.6982 56.1927 61.1128Z" fill="white"/>
<path id="XMLID_559_" d="M56.8212 64.5172C56.5857 64.6464 56.372 64.7756 56.2124 64.915C55.0458 65.8275 54.5822 67.8067 55.2179 69.1267C55.3327 69.3658 55.4949 69.5245 55.6511 69.6929C56.3612 70.4324 57.4083 70.4423 58.2475 69.6782C59.2396 68.6776 61.642 65.5957 61.2381 64.3463C60.8694 63.1968 58.2767 63.7217 56.8212 64.5172Z" fill="white"/>
<path id="XMLID_560_" d="M75.7455 104.013C74.6569 103.167 71.6823 104.709 70.8431 105.575C70.0219 106.449 70.3572 108.096 71.7167 109.155C73.0698 110.219 74.7902 110.178 75.443 109.165C76.0824 108.145 76.8303 104.873 75.7455 104.013Z" fill="white"/>
<path id="XMLID_561_" d="M58.5866 80.7282C59.2065 79.4568 61.6676 74.5174 61.0184 73.5343C60.2496 72.353 56.1 75.5768 55.3007 76.8652C53.3057 79.5591 56.6855 83.7125 58.5866 80.7282Z" fill="white"/>
<path id="XMLID_562_" d="M57.5666 88.349C56.9749 89.8939 57.7325 92.0215 59.1675 92.844C60.6023 93.6736 62.0238 92.9392 62.4496 91.4531C62.695 89.8422 63.9199 83.788 62.9207 82.9632C61.7054 81.9188 58.0339 86.6531 57.5666 88.349Z" fill="white"/>
<path id="XMLID_563_" d="M66.3688 104.06C68.2528 104.457 69.5033 103.13 69.4083 101.358C69.0261 99.4964 68.327 92.5705 67.0191 92.0388C65.3488 91.2945 62.8656 97.6368 62.9792 99.6818C62.8705 101.578 64.4885 103.672 66.3688 104.06Z" fill="white"/>
<path id="XMLID_564_" d="M52.4177 68.5345C53.4695 67.4435 53.9185 65.5377 53.4669 64.0784C52.9668 62.6729 51.0608 59.3516 49.8028 60.3644C48.4447 61.4431 48.6985 66.5505 49.3867 67.9783C49.9946 69.4618 51.3671 69.6156 52.4177 68.5345Z" fill="white"/>
<path id="XMLID_565_" d="M51.5438 81.4455C52.2504 80.1032 52.1466 78.1436 51.3011 76.8722C50.37 75.7424 46.8647 70.9327 45.9263 72.1771C44.7893 73.6217 47.343 80.6449 48.4814 81.7603C49.4781 83.0172 50.8397 82.7851 51.5438 81.4455Z" fill="white"/>
<path id="XMLID_566_" d="M51.0912 96.263C52.6383 97.3513 54.0597 96.6195 54.3746 94.8744C54.6882 93.1249 53.9232 90.9652 52.5737 89.8131C51.1608 88.8592 45.7506 84.5005 45.0941 86.1943C44.2425 88.2027 49.4073 95.404 51.0912 96.263Z" fill="white"/>
<path id="XMLID_567_" d="M58.4854 102.701C56.5967 102.161 49.2061 99.0596 49.0609 101.149C48.7681 103.699 57.0591 110.021 59.2797 110.353C61.4064 111.017 62.6571 109.687 62.3228 107.654C61.9848 105.614 60.3631 103.518 58.4854 102.701Z" fill="white"/>
<path id="XMLID_568_" d="M98.6114 112.435C102.435 107.979 105.038 103.66 107.783 98.1956C109.614 94.0592 111.51 88.7907 112.241 84.1615C112.832 80.44 112.867 76.9749 112.63 73.9514C112.288 69.5174 111.213 65.0879 110.304 62.8381C110.85 65.3369 111.405 69.7541 111.445 73.9953C111.484 77.3753 111.221 80.8943 110.439 84.1837C109.334 88.8152 107.142 93.1299 105.131 96.8464C100.144 104.894 99.5195 105.095 95.2464 109.668C94.3775 110.603 94.5777 112.027 95.3551 112.75C95.7882 113.158 96.3456 113.345 96.8961 113.331C95.4026 114.512 94.618 116.181 95.2721 117.191C95.9054 118.211 99.1618 119.854 100.934 118.467C102.703 117.081 101.847 113.565 101.014 112.703C100.493 112.149 99.5838 112.12 98.6114 112.435Z" fill="white"/>
<path id="XMLID_569_" d="M109.161 61.1128C110.288 60.6981 110.676 58.9434 109.87 57.2303C109.142 55.4635 105.702 51.7051 104.666 52.4422C103.756 53.138 105.305 57.5449 105.927 59.0775C106.647 60.6028 108.03 61.5279 109.161 61.1128Z" fill="white"/>
<path id="XMLID_570_" d="M110.136 69.1268C110.771 67.8067 110.308 65.8276 109.141 64.9151C108.05 63.9802 104.553 62.9847 104.115 64.3464C103.711 65.5958 106.114 68.6777 107.106 69.6783C108.22 70.6911 109.592 70.2616 110.136 69.1268Z" fill="white"/>
<path id="XMLID_571_" d="M94.5106 105.575C93.671 104.709 90.6963 103.167 89.608 104.014C88.5246 104.873 89.2711 108.145 89.9106 109.165C90.5632 110.178 92.2837 110.219 93.6369 109.155C94.9959 108.096 95.3316 106.449 94.5106 105.575Z" fill="white"/>
<path id="XMLID_572_" d="M104.335 73.5342C103.686 74.5174 106.147 79.4566 106.767 80.7281C107.494 81.87 108.856 82.102 109.831 81.038C110.751 80.0521 110.845 77.9338 110.053 76.8651C109.254 75.5767 105.104 72.3529 104.335 73.5342Z" fill="white"/>
<path id="XMLID_573_" d="M106.187 92.8443C107.621 92.0217 108.379 89.8941 107.787 88.3492C107.32 86.6534 103.648 81.9191 102.433 82.9634C101.434 83.7884 102.659 89.8426 102.904 91.4533C103.33 92.9394 104.751 93.6738 106.187 92.8443Z" fill="white"/>
<path id="XMLID_574_" d="M98.3343 92.0388C97.0264 92.5705 96.3271 99.4964 95.9454 101.358C95.8502 103.13 97.1008 104.458 98.9847 104.06C100.865 103.672 102.483 101.578 102.374 99.6818C102.488 97.6368 100.005 91.2945 98.3343 92.0388Z" fill="white"/>
<path id="XMLID_575_" d="M115.967 68.1288C116.655 66.701 116.909 61.5936 115.551 60.5149C114.292 59.5021 112.387 62.8234 111.886 64.2289C111.435 65.6884 111.884 67.5942 112.936 68.685C113.986 69.7662 115.359 69.6123 115.967 68.1288Z" fill="white"/>
<path id="XMLID_576_" d="M113.809 81.4455C114.514 82.7849 115.875 83.0172 116.872 81.7603C118.011 80.6449 120.564 73.6217 119.427 72.1771C118.489 70.9327 114.983 75.7424 114.053 76.8722C113.207 78.1438 113.103 80.1032 113.809 81.4455Z" fill="white"/>
<path id="XMLID_577_" d="M110.979 94.8744C111.294 96.6193 112.715 97.3513 114.262 96.263C115.946 95.4041 121.111 88.2028 120.259 86.1944C119.603 84.5007 114.193 88.8592 112.78 89.8132C111.43 90.9652 110.665 93.1248 110.979 94.8744Z" fill="white"/>
<path id="XMLID_578_" d="M106.868 102.701C104.99 103.518 103.369 105.614 103.031 107.654C102.697 109.687 103.947 111.017 106.074 110.353C108.295 110.021 116.586 103.699 116.293 101.149C116.148 99.0596 108.757 102.161 106.868 102.701Z" fill="white"/>
</g>
</g>
</svg>
