<svg width="167" height="166" viewBox="0 0 167 166" fill="none" xmlns="http://www.w3.org/2000/svg">
<path opacity="0.08" fill-rule="evenodd" clip-rule="evenodd" d="M102.763 30.073C127.015 38.2672 145.778 59.2681 145.54 85.2018C145.312 110.255 125.429 129.519 101.785 137.156C79.4064 144.383 55.4954 137.441 40.9292 118.988C24.2259 97.8267 14.4183 68.4649 29.9425 46.1406C45.7827 23.3632 76.8195 21.3065 102.763 30.073Z" fill="white"/>
<path d="M125.3 103.293C123.685 103.293 122.908 104.194 120.257 104.194C117.606 104.194 116.835 103.293 115.214 103.293C111.038 103.293 107.649 106.681 107.649 110.858V112.298C107.649 113.79 108.86 115 110.351 115H130.163C131.654 115 132.864 113.79 132.864 112.298V110.858C132.864 106.681 129.476 103.293 125.3 103.293ZM130.163 112.298H110.351V110.858C110.351 108.178 112.535 105.995 115.214 105.995C116.036 105.995 117.37 106.895 120.257 106.895C123.167 106.895 124.473 105.995 125.3 105.995C127.979 105.995 130.163 108.178 130.163 110.858V112.298ZM120.257 102.393C124.731 102.393 128.362 98.7622 128.362 94.2877C128.362 89.8131 124.731 86.1829 120.257 86.1829C115.782 86.1829 112.152 89.8131 112.152 94.2877C112.152 98.7622 115.782 102.393 120.257 102.393ZM120.257 88.8845C123.234 88.8845 125.66 91.3103 125.66 94.2877C125.66 97.2651 123.234 99.6909 120.257 99.6909C117.28 99.6909 114.854 97.2651 114.854 94.2877C114.854 91.3103 117.28 88.8845 120.257 88.8845Z" fill="white"/>
<path fill-rule="evenodd" clip-rule="evenodd" d="M109.759 79L82 79L82.0001 102L109.759 102L109.759 79Z" fill="white" fill-opacity="0.01"/>
<path d="M86.0542 82.8462L102.714 82.8462C104.291 82.8462 107.446 83.5765 107.446 86.6511C107.446 89.7258 104.291 90.5002 102.714 90.5002L88.9434 90.5002C87.3662 90.5002 84.3134 91.2515 84.3134 94.3261C84.3134 97.4008 87.3662 98.1682 88.9434 98.1682L106.251 98.1682" stroke="#FFFAFA" stroke-width="1.4" stroke-linecap="round" stroke-linejoin="round"/>
<path d="M105.106 96.2466L107.407 98.1951L105.106 100.083" stroke="#FFFAFA" stroke-width="1.4" stroke-linecap="round" stroke-linejoin="round"/>
<path d="M87.7584 80.895L85.4578 82.8436L87.7584 84.7319" stroke="#FFFAFA" stroke-width="1.4" stroke-linecap="round" stroke-linejoin="round"/>
<g clip-path="url(#clip0_5_213)">
<path d="M49.9667 67.2166C49.9667 67.6674 50.3325 68.0333 50.7833 68.0333H54.05C54.5008 68.0333 54.8667 67.6674 54.8667 67.2166V62.3166C54.8667 61.8659 54.5008 61.5 54.05 61.5H50.7834C50.3326 61.5 49.9668 61.8659 49.9668 62.3166L49.9667 67.2166ZM51.6 63.1334H53.2334V66.4H51.6V63.1334Z" fill="white"/>
<path d="M50.7834 58.2335H54.0501C54.5008 58.2335 54.8667 57.8676 54.8667 57.4168V52.5168C54.8667 52.0661 54.5008 51.7002 54.0501 51.7002H50.7834C50.3327 51.7002 49.9668 52.0661 49.9668 52.5168V57.4168C49.9667 57.8676 50.3326 58.2335 50.7834 58.2335ZM51.6001 53.3335H53.2334V56.6001H51.6001V53.3335Z" fill="white"/>
<path d="M44.6707 52.3999L56.5001 45.3022L68.3294 52.3999C68.4609 52.4791 68.6063 52.5166 68.7492 52.5166C69.0268 52.5166 69.2972 52.3754 69.4499 52.1205C69.6827 51.7334 69.5569 51.232 69.1707 51L57.3167 43.8878V38.6334H61.4001V40.2667H58.9501C58.4993 40.2667 58.1334 40.6326 58.1334 41.0834C58.1334 41.5341 58.4993 41.9 58.9501 41.9H62.2167C62.6675 41.9 63.0333 41.5341 63.0333 41.0834V37.8166C63.0333 37.3659 62.6675 37 62.2167 37H56.5001C56.0493 37 55.6834 37.3659 55.6834 37.8166V43.8878L43.8295 51.0001C43.4433 51.232 43.3175 51.7335 43.5503 52.1206C43.7813 52.5069 44.2843 52.6326 44.6707 52.3999Z" fill="white"/>
<path d="M46.7 78.6499V54.9665C46.7 54.5158 46.3342 54.1499 45.8834 54.1499C45.4326 54.1499 45.0668 54.5158 45.0668 54.9665V78.6499C45.0668 79.1007 45.4326 79.4665 45.8834 79.4665C46.3342 79.4665 46.7 79.1007 46.7 78.6499Z" fill="white"/>
<path d="M42.6167 82.7335H70.3833C70.8341 82.7335 71.2 82.3676 71.2 81.9168C71.2 81.4661 70.8341 81.1002 70.3833 81.1002H63.0333V72.9336H63.85C64.3007 72.9336 64.6666 72.5677 64.6666 72.1169C64.6666 71.6662 64.3007 71.3003 63.85 71.3003H49.15C48.6993 71.3003 48.3334 71.6662 48.3334 72.1169C48.3334 72.5677 48.6993 72.9336 49.15 72.9336H49.9667V81.1001H42.6167C42.1659 81.1001 41.8 81.466 41.8 81.9167C41.8 82.3675 42.1659 82.7335 42.6167 82.7335ZM57.3167 77.8335C57.7674 77.8335 58.1333 77.4676 58.1333 77.0168C58.1333 76.5661 57.7674 76.2002 57.3167 76.2002V72.9336H61.4001V81.1001H57.3167V77.8335ZM51.6 72.9335H55.6834V76.2001C55.2327 76.2001 54.8668 76.566 54.8668 77.0167C54.8668 77.4675 55.2327 77.8334 55.6834 77.8334V81.1001H51.6V72.9335Z" fill="white"/>
<path d="M75.2835 72.1167H72.0168C71.5661 72.1167 71.2002 72.4826 71.2002 72.9333V77.8333C71.2002 78.2841 71.5661 78.65 72.0168 78.65H75.2835C75.7342 78.65 76.1001 78.2841 76.1001 77.8333V72.9333C76.1001 72.4826 75.7342 72.1167 75.2835 72.1167ZM74.4667 77.0167H72.8334V73.7501H74.4667V77.0167Z" fill="white"/>
<path d="M75.2835 62.3167H72.0168C71.5661 62.3167 71.2002 62.6825 71.2002 63.1333V68.0333C71.2002 68.484 71.5661 68.8499 72.0168 68.8499H75.2835C75.7342 68.8499 76.1001 68.484 76.1001 68.0333V63.1333C76.1001 62.6825 75.7342 62.3167 75.2835 62.3167ZM74.4667 67.2167H72.8334V63.95H74.4667V67.2167Z" fill="white"/>
<path d="M73.6501 84.3667H39.3501C38.8993 84.3667 38.5334 84.7326 38.5334 85.1833C38.5334 85.6341 38.8993 86.0001 39.3501 86.0001H73.6501C74.1008 86.0001 74.4667 85.6342 74.4667 85.1834C74.4667 84.7327 74.1008 84.3667 73.6501 84.3667Z" fill="white"/>
<path d="M80.1834 54.9666C79.7326 54.9666 79.3668 55.3324 79.3668 55.7832V56.5998H70.3834C69.9326 56.5998 69.5668 56.9657 69.5668 57.4165C69.5668 57.8672 69.9326 58.2331 70.3834 58.2331H79.3668V85.1831C79.3668 85.6339 79.7326 85.9997 80.1834 85.9997C80.6342 85.9997 81 85.6339 81 85.1831V55.7831C81 55.3324 80.6342 54.9666 80.1834 54.9666Z" fill="white"/>
<path d="M41.2805 71.9683H38.0139C37.5631 71.9683 37.1973 72.3341 37.1973 72.7849V77.6849C37.1973 78.1357 37.5631 78.5015 38.0139 78.5015H41.2805C41.7313 78.5015 42.0972 78.1357 42.0972 77.6849V72.7849C42.0972 72.3341 41.7313 71.9683 41.2805 71.9683ZM40.4638 76.8683H38.8304V73.6016H40.4638V76.8683Z" fill="white"/>
<path d="M41.2805 62.1682H38.0139C37.5631 62.1682 37.1973 62.5341 37.1973 62.9848V67.8848C37.1973 68.3356 37.5631 68.7015 38.0139 68.7015H41.2805C41.7313 68.7015 42.0972 68.3356 42.0972 67.8848V62.9848C42.0972 62.5341 41.7313 62.1682 41.2805 62.1682ZM40.4638 67.0682H38.8304V63.8016H40.4638V67.0682Z" fill="white"/>
<path d="M58.1334 67.2166C58.1334 67.6674 58.4993 68.0333 58.9501 68.0333H62.2167C62.6675 68.0333 63.0333 67.6674 63.0333 67.2166V62.3166C63.0333 61.8659 62.6675 61.5 62.2167 61.5H58.9501C58.4993 61.5 58.1334 61.8659 58.1334 62.3166V67.2166ZM59.7667 63.1334H61.4001V66.4H59.7667V63.1334Z" fill="white"/>
<path d="M67.9334 78.6499V54.1499C67.9334 53.6991 67.5676 53.3333 67.1168 53.3333C66.666 53.3333 66.3002 53.6991 66.3002 54.1499V78.6499C66.3002 79.1006 66.666 79.4665 67.1168 79.4665C67.5676 79.4665 67.9334 79.1006 67.9334 78.6499Z" fill="white"/>
<path d="M58.9501 58.2335H62.2167C62.6675 58.2335 63.0333 57.8676 63.0333 57.4168V52.5168C63.0333 52.0661 62.6675 51.7002 62.2167 51.7002H58.9501C58.4993 51.7002 58.1334 52.0661 58.1334 52.5168V57.4168C58.1334 57.8676 58.4993 58.2335 58.9501 58.2335ZM59.7667 53.3335H61.4001V56.6001H59.7667V53.3335Z" fill="white"/>
<path d="M32.9678 53.9272C33.4185 53.9272 33.7843 54.2844 33.7843 54.7243V55.5215H42.7654C43.216 55.5215 43.5818 55.8786 43.5818 56.3186C43.5818 56.7585 43.216 57.1157 42.7654 57.1157H33.7843L33.7843 83.4211C33.7843 83.861 33.4185 84.2182 32.9678 84.2182C32.5172 84.2182 32.1514 83.861 32.1514 83.4211L32.1514 54.7243C32.1514 54.2844 32.5172 53.9272 32.9678 53.9272Z" fill="white"/>
</g>
<defs>
<clipPath id="clip0_5_213">
<rect width="49" height="49" fill="white" transform="translate(32 37)"/>
</clipPath>
</defs>
</svg>
